<mxfile host="app.diagrams.net" modified="2024-02-08T08:36:56.137Z" agent="Mozilla/5.0 (Macintosh; Intel Mac OS X 10_15_7) AppleWebKit/537.36 (KHTML, like Gecko) Chrome/120.0.0.0 Safari/537.36" etag="XnxkkrYgD_4TBuxeXac_" version="23.1.2" type="device">
  <diagram name="Page-1" id="M1dqgf8XKjNif9VVKeb0">
    <mxGraphModel dx="2051" dy="625" grid="1" gridSize="10" guides="1" tooltips="1" connect="1" arrows="1" fold="1" page="1" pageScale="1" pageWidth="827" pageHeight="1169" math="0" shadow="0">
      <root>
        <mxCell id="0" />
        <mxCell id="1" parent="0" />
        <mxCell id="btGKni6bQdnKpMUa05Oi-3" value="" style="rounded=0;whiteSpace=wrap;html=1;" vertex="1" parent="1">
          <mxGeometry x="410" y="80" width="540" height="340" as="geometry" />
        </mxCell>
        <mxCell id="btGKni6bQdnKpMUa05Oi-11" style="edgeStyle=orthogonalEdgeStyle;rounded=0;orthogonalLoop=1;jettySize=auto;html=1;exitX=0.984;exitY=0.174;exitDx=0;exitDy=0;entryX=0;entryY=0.25;entryDx=0;entryDy=0;exitPerimeter=0;" edge="1" parent="1" source="btGKni6bQdnKpMUa05Oi-1">
          <mxGeometry relative="1" as="geometry">
            <mxPoint x="140" y="140" as="sourcePoint" />
            <mxPoint x="410" y="140" as="targetPoint" />
          </mxGeometry>
        </mxCell>
        <mxCell id="btGKni6bQdnKpMUa05Oi-12" value="post /run (script: daily_updates.sh)" style="edgeLabel;html=1;align=center;verticalAlign=middle;resizable=0;points=[];" vertex="1" connectable="0" parent="btGKni6bQdnKpMUa05Oi-11">
          <mxGeometry x="0.0074" y="2" relative="1" as="geometry">
            <mxPoint as="offset" />
          </mxGeometry>
        </mxCell>
        <mxCell id="btGKni6bQdnKpMUa05Oi-1" value="cron controller" style="rounded=0;whiteSpace=wrap;html=1;rotation=0;" vertex="1" parent="1">
          <mxGeometry x="-60" y="80" width="125" height="340" as="geometry" />
        </mxCell>
        <mxCell id="btGKni6bQdnKpMUa05Oi-10" style="edgeStyle=orthogonalEdgeStyle;rounded=0;orthogonalLoop=1;jettySize=auto;html=1;exitX=-0.005;exitY=0.157;exitDx=0;exitDy=0;exitPerimeter=0;" edge="1" parent="1" source="btGKni6bQdnKpMUa05Oi-4">
          <mxGeometry relative="1" as="geometry">
            <mxPoint x="410" y="190" as="sourcePoint" />
            <mxPoint x="65" y="190" as="targetPoint" />
            <Array as="points" />
          </mxGeometry>
        </mxCell>
        <mxCell id="btGKni6bQdnKpMUa05Oi-13" value="(started: daily_updates.sh)" style="edgeLabel;html=1;align=center;verticalAlign=middle;resizable=0;points=[];" vertex="1" connectable="0" parent="btGKni6bQdnKpMUa05Oi-10">
          <mxGeometry x="0.2444" y="1" relative="1" as="geometry">
            <mxPoint as="offset" />
          </mxGeometry>
        </mxCell>
        <mxCell id="btGKni6bQdnKpMUa05Oi-14" style="edgeStyle=orthogonalEdgeStyle;rounded=0;orthogonalLoop=1;jettySize=auto;html=1;exitX=0;exitY=0.914;exitDx=0;exitDy=0;entryX=1;entryY=0.75;entryDx=0;entryDy=0;exitPerimeter=0;" edge="1" parent="1" source="btGKni6bQdnKpMUa05Oi-4" target="btGKni6bQdnKpMUa05Oi-1">
          <mxGeometry relative="1" as="geometry" />
        </mxCell>
        <mxCell id="btGKni6bQdnKpMUa05Oi-15" value="post /status (script: daily_updates.sh; status: status_here)" style="edgeLabel;html=1;align=center;verticalAlign=middle;resizable=0;points=[];" vertex="1" connectable="0" parent="btGKni6bQdnKpMUa05Oi-14">
          <mxGeometry x="-0.0074" y="-4" relative="1" as="geometry">
            <mxPoint as="offset" />
          </mxGeometry>
        </mxCell>
        <mxCell id="btGKni6bQdnKpMUa05Oi-7" style="edgeStyle=orthogonalEdgeStyle;rounded=0;orthogonalLoop=1;jettySize=auto;html=1;entryX=0;entryY=0.5;entryDx=0;entryDy=0;" edge="1" parent="1" source="btGKni6bQdnKpMUa05Oi-4" target="btGKni6bQdnKpMUa05Oi-5">
          <mxGeometry relative="1" as="geometry">
            <Array as="points">
              <mxPoint x="650" y="245" />
              <mxPoint x="650" y="245" />
            </Array>
          </mxGeometry>
        </mxCell>
        <mxCell id="btGKni6bQdnKpMUa05Oi-8" value="exec script.sh" style="edgeLabel;html=1;align=center;verticalAlign=middle;resizable=0;points=[];" vertex="1" connectable="0" parent="btGKni6bQdnKpMUa05Oi-7">
          <mxGeometry x="-0.06" y="-1" relative="1" as="geometry">
            <mxPoint as="offset" />
          </mxGeometry>
        </mxCell>
        <mxCell id="btGKni6bQdnKpMUa05Oi-4" value="- expose app:3000/run&lt;br&gt;&lt;br&gt;on new req:&lt;br&gt;-execute &#39;script.sh&#39;&lt;br&gt;-send ack response&lt;br&gt;-wait for exit status(succes/fail/kill)&lt;br&gt;&lt;br&gt;-post status to cron controller" style="rounded=0;whiteSpace=wrap;html=1;" vertex="1" parent="1">
          <mxGeometry x="430" y="165" width="190" height="185" as="geometry" />
        </mxCell>
        <mxCell id="btGKni6bQdnKpMUa05Oi-5" value="daily_updates.sh&lt;br&gt;week_updates.sh&lt;br&gt;month_updates.sh" style="rounded=0;whiteSpace=wrap;html=1;" vertex="1" parent="1">
          <mxGeometry x="750" y="165" width="180" height="160" as="geometry" />
        </mxCell>
        <mxCell id="btGKni6bQdnKpMUa05Oi-16" value="docker_image" style="text;html=1;strokeColor=none;fillColor=none;align=center;verticalAlign=middle;whiteSpace=wrap;rounded=0;" vertex="1" parent="1">
          <mxGeometry x="410" y="40" width="86" height="30" as="geometry" />
        </mxCell>
        <mxCell id="btGKni6bQdnKpMUa05Oi-17" value="sh_controller_node_app" style="text;html=1;strokeColor=none;fillColor=none;align=center;verticalAlign=middle;whiteSpace=wrap;rounded=0;" vertex="1" parent="1">
          <mxGeometry x="450" y="130" width="86" height="30" as="geometry" />
        </mxCell>
        <mxCell id="btGKni6bQdnKpMUa05Oi-18" value="script_collections" style="text;html=1;strokeColor=none;fillColor=none;align=center;verticalAlign=middle;whiteSpace=wrap;rounded=0;" vertex="1" parent="1">
          <mxGeometry x="760" y="130" width="86" height="30" as="geometry" />
        </mxCell>
      </root>
    </mxGraphModel>
  </diagram>
</mxfile>
